<svg data-name="Layer 1" xmlns="http://www.w3.org/2000/svg" viewBox="0 0 295.17 39.55"><path d="M141.23.96h2.19l4 5.13V.96h2.18v8.39h-2.18l-4-5.12v5.14h-2.18zm16.01 8.39h-2v-.63a2 2 0 0 1-1.73.82 3.045 3.045 0 0 1 0-6.09 2.33 2.33 0 0 1 1.77.75v-.56h2zm-4.56-2.85a1.3 1.3 0 0 0 2.6 0 1.3 1.3 0 0 0-2.6 0zm8.12 2.85h-2v-4h-.66V3.68h.66V1.93h2v1.71h1.15v1.67h-1.15zm3.94-7.9A1.14 1.14 0 1 1 163.6.31a1.14 1.14 0 0 1 1.14 1.14zm-.12 7.9h-2V3.64h2zm7.8-2.85c0 1.94-1.6 3-3.44 3s-3.44-1.09-3.44-3 1.6-3.05 3.44-3.05 3.44 1.1 3.44 3.05zm-4.74 0a1.3 1.3 0 0 0 2.6 0 1.3 1.3 0 0 0-2.6 0zm7.67-2.12a2 2 0 0 1 1.83-.92c1.54 0 2.15 1 2.15 2.37v3.53h-2V6.58c0-.55.09-1.5-.91-1.5-.82 0-1.06.61-1.06 1.32v3h-2V3.69h2zm11.58 4.97h-2v-.63a2 2 0 0 1-1.73.82 3.045 3.045 0 0 1 0-6.09 2.33 2.33 0 0 1 1.77.75v-.56h2zm-4.56-2.85a1.305 1.305 0 0 0 2.61 0 1.305 1.305 0 0 0-2.61 0zm7.93 2.85h-2V.11h2zm7.38 0h-2.18V.96h2.18zm3.41-4.97a2 2 0 0 1 1.83-.92c1.54 0 2.15 1 2.15 2.37v3.53h-2V6.58c0-.55.09-1.5-.91-1.5-.82 0-1.06.61-1.06 1.32v3h-2V3.69h2zm9.11.73a2.5 2.5 0 0 0-1.09-.28c-.23 0-.63.1-.63.39s.63.44.91.5c.95.19 1.66.63 1.66 1.69 0 1.5-1.37 2.13-2.69 2.13a4.43 4.43 0 0 1-2.3-.66l.73-1.41a3.26 3.26 0 0 0 1.6.58c.26 0 .63-.12.63-.44s-.63-.47-1.27-.64a1.43 1.43 0 0 1-1.27-1.5c0-1.4 1.27-2 2.52-2a4.54 4.54 0 0 1 1.88.37zm4.15 4.24h-2v-4h-.66V3.68h.66V1.93h2v1.71h1.15v1.67h-1.15zm3.94-7.9a1.14 1.14 0 1 1-1.14-1.14 1.14 1.14 0 0 1 1.14 1.14zm-.12 7.9h-2V3.64h2zm3.55 0h-2v-4h-.66V3.68h.66V1.93h2v1.71h1.15v1.67h-1.15zm3.78-5.71v3.05c0 .72.18 1.24 1 1.24s1-.51 1-1.24V3.64h2v3.44c0 1.88-1.33 2.46-3 2.46s-3-.58-3-2.46V3.64zm7.56 5.71h-2v-4h-.64V3.68h.66V1.93h2v1.71h1.15v1.67h-1.15zm7.66-2.51h-4.3a1.13 1.13 0 0 0 1.27 1.27 1 1 0 0 0 1-.52h1.95a2.77 2.77 0 0 1-2.91 2c-1.89 0-3.31-1.07-3.31-3a3.15 3.15 0 0 1 6.29.12zm-1.88-1.17a1.22 1.22 0 0 0-2.35 0zm13.08.83c0 1.94-1.6 3-3.44 3s-3.44-1.09-3.44-3 1.6-3.05 3.44-3.05 3.44 1.1 3.44 3.05zm-4.74 0a1.305 1.305 0 0 0 2.61 0 1.305 1.305 0 0 0-2.61 0zm7.88 2.85h-2v-4h-.71V3.68h.71v-.72a2.56 2.56 0 0 1 2.57-2.92 1.81 1.81 0 0 1 .87.2v1.75a1.74 1.74 0 0 0-.71-.19c-.52 0-.7.31-.7 1v.92h1.41v1.67h-1.41zm-109.22 7.2a2.3 2.3 0 0 0-1.45-.55c-.4 0-.94.23-.94.7s.59.68 1 .8l.56.17c1.17.34 2.07.93 2.07 2.29a2.86 2.86 0 0 1-.87 2.26 3.69 3.69 0 0 1-2.38.79 5.17 5.17 0 0 1-2.95-1l.93-1.76a3 3 0 0 0 1.94.87c.51 0 1.06-.25 1.06-.85s-.86-.82-1.32-1c-1.37-.39-2.27-.75-2.27-2.37a2.72 2.72 0 0 1 2.9-2.82 5.75 5.75 0 0 1 2.63.69zm4.42 6.24h-2v-4h-.66v-1.67h.66V15.4h2v1.72h1.16v1.67h-1.15zm8.04 0h-2v-.63a2 2 0 0 1-1.73.82 3.045 3.045 0 0 1 0-6.09 2.33 2.33 0 0 1 1.77.74v-.56h2zm-4.56-2.85a1.3 1.3 0 0 0 2.6 0 1.3 1.3 0 0 0-2.6 0zm7.93-2.13a2 2 0 0 1 1.83-.92c1.54 0 2.15 1 2.15 2.37v3.53h-2v-2.78c0-.55.09-1.5-.91-1.5-.82 0-1.06.61-1.06 1.32v3h-2v-5.71h2zm9.63 4.34a2 2 0 0 1-1.72.82 3.045 3.045 0 0 1 0-6.09 2.33 2.33 0 0 1 1.77.74v-4.09h2v9.24h-2zm-2.54-2.21a1.305 1.305 0 0 0 2.61 0 1.305 1.305 0 0 0-2.61 0zm12.08 2.85h-2v-.63a2 2 0 0 1-1.72.82 3.045 3.045 0 0 1 0-6.09 2.33 2.33 0 0 1 1.77.74v-.56h2zm-4.56-2.85a1.3 1.3 0 0 0 2.6 0 1.3 1.3 0 0 0-2.6 0zm7.93-1.93a2 2 0 0 1 1.85-1h.39v1.95a1.65 1.65 0 0 0-.86-.19c-1.12 0-1.4.75-1.4 1.73v2.3h-2v-5.71h2zm7.32 4.14a2 2 0 0 1-1.72.82 3.045 3.045 0 0 1 0-6.09 2.33 2.33 0 0 1 1.77.74v-4.09h2v9.24h-2zm-2.54-2.21a1.3 1.3 0 0 0 2.6 0 1.3 1.3 0 0 0-2.6 0zm9.6-1.39a2.5 2.5 0 0 0-1.09-.28c-.23 0-.63.1-.63.39s.63.44.91.5c.95.19 1.66.63 1.66 1.69 0 1.5-1.37 2.13-2.69 2.13a4.43 4.43 0 0 1-2.3-.66l.73-1.41a3.27 3.27 0 0 0 1.6.58c.26 0 .63-.12.63-.43s-.63-.47-1.27-.64a1.43 1.43 0 0 1-1.27-1.5c0-1.4 1.27-2 2.52-2a4.53 4.53 0 0 1 1.88.37zm12.01 4.24h-2v-.63a2 2 0 0 1-1.72.82 3.045 3.045 0 0 1 0-6.09 2.33 2.33 0 0 1 1.77.74v-.56h2zm-4.56-2.85a1.305 1.305 0 0 0 2.61 0 1.305 1.305 0 0 0-2.61 0zm7.93-2.13a2 2 0 0 1 1.82-.92c1.54 0 2.15 1 2.15 2.37v3.53h-2v-2.78c0-.55.09-1.5-.91-1.5-.82 0-1.06.61-1.06 1.32v3h-2v-5.71h2zm9.63 4.34a2 2 0 0 1-1.73.82 3.045 3.045 0 0 1 0-6.09 2.33 2.33 0 0 1 1.77.74v-4.09h2v9.24h-2zm-2.54-2.21a1.3 1.3 0 0 0 2.6 0 1.3 1.3 0 0 0-2.6 0zm13.04 2.85h-2.18v-6.56h-1.8v-1.85h5.79v1.85h-1.8zm7.59-2.56h-4.27a1.13 1.13 0 0 0 1.27 1.27 1 1 0 0 0 1-.52h1.95a2.77 2.77 0 0 1-2.9 2c-1.89 0-3.31-1.07-3.31-3a3.15 3.15 0 0 1 6.29.12zm-1.88-1.17a1.22 1.22 0 0 0-2.35 0zm6.92-.12a1.79 1.79 0 0 0-1-.4 1.37 1.37 0 0 0-1.39 1.39 1.36 1.36 0 0 0 1.43 1.4 1.56 1.56 0 0 0 1-.39v1.71a3.16 3.16 0 0 1-1.42.32 3 3 0 0 1-3.11-3 3.06 3.06 0 0 1 3.19-3.1 2.77 2.77 0 0 1 1.34.33zm3.29-5.39v4.25a2.11 2.11 0 0 1 1.83-.91c1.45 0 2.15 1 2.15 2.4v3.5h-2v-2.93c0-.67-.1-1.36-.91-1.36s-1.06.69-1.06 1.36v2.93h-2v-9.24zm7.4 4.26a2 2 0 0 1 1.83-.92c1.54 0 2.15 1 2.15 2.37v3.53h-2v-2.78c0-.55.09-1.5-.91-1.5-.82 0-1.06.61-1.06 1.32v3h-2v-5.71h2zm11.74 2.13c0 1.94-1.6 3-3.44 3s-3.44-1.09-3.44-3 1.6-3 3.44-3 3.44 1.05 3.44 3zm-4.74 0a1.3 1.3 0 0 0 2.6 0 1.3 1.3 0 0 0-2.6 0zm7.68 2.85h-2v-9.24h2zm7.8-2.85c0 1.94-1.6 3-3.44 3s-3.44-1.09-3.44-3 1.6-3 3.44-3 3.44 1.05 3.44 3zm-4.74 0a1.305 1.305 0 0 0 2.61 0 1.305 1.305 0 0 0-2.61 0zm11.92 2.29c0 2.43-1.2 3.41-3.31 3.41-1.31 0-3.07-.68-3.25-2.18h2.27a.7.7 0 0 0 .38.43 1.33 1.33 0 0 0 .58.13c1.09 0 1.3-.71 1.3-1.64v-.27a2.37 2.37 0 0 1-1.81.78 2.78 2.78 0 0 1-2.82-2.92 3 3 0 0 1 2.93-3.09 2 2 0 0 1 1.68.79v-.6h2zm-4.57-2.34a1.305 1.305 0 0 0 2.61 0 1.305 1.305 0 0 0-2.61 0zm5-2.81h2.34l1.53 2.93 1.49-2.93h2.3l-4.57 8.56h-2.28l1.95-3.63zM142.28 33.23a3.1 3.1 0 0 0 .37 1.87 2.17 2.17 0 0 0 1.69.8 2.22 2.22 0 0 0 1.65-.75 2.89 2.89 0 0 0 .43-1.92v-5h.93v5.25a3 3 0 0 1-.73 2.33 3.08 3.08 0 0 1-2.26 1 3.14 3.14 0 0 1-2.17-.86 3 3 0 0 1-.82-2.43v-5.29h.94zm8.2 2.89a.625.625 0 1 1-1.25 0 .625.625 0 0 1 1.25 0zm5.74-6.27a1.54 1.54 0 0 0-1.45-.91 1.33 1.33 0 0 0-1.35 1.29c0 .72.75 1.06 1.31 1.31l.56.24c1.09.48 2 1 2 2.36a2.65 2.65 0 0 1-5.25.42l.91-.26a1.73 1.73 0 0 0 1.68 1.56 1.69 1.69 0 0 0 1.72-1.64c0-1-.77-1.31-1.55-1.67l-.51-.22c-1-.45-1.83-.95-1.83-2.15a2.2 2.2 0 0 1 2.35-2.14 2.41 2.41 0 0 1 2.17 1.3zm3.91 6.27a.625.625 0 1 1-1.25 0 .625.625 0 0 1 1.25 0zm5.37-7.89h1.58a4.58 4.58 0 0 1 3.27 1 4.31 4.31 0 0 1 0 6.32 4.46 4.46 0 0 1-3.32 1.06h-1.56zm1.62 7.53a3.53 3.53 0 0 0 2.65-.87 3.43 3.43 0 0 0 0-5 3.6 3.6 0 0 0-2.6-.81h-.75v6.66zm6.37-1.53a1.69 1.69 0 0 0 1.71 1.75 1.79 1.79 0 0 0 1.59-1.08l.76.43a2.64 2.64 0 0 1-2.42 1.47 2.53 2.53 0 0 1-2.56-2.69 2.54 2.54 0 1 1 5 .12zm3.17-.76a1.6 1.6 0 0 0-1.54-1.37 1.66 1.66 0 0 0-1.59 1.37zm3.01-1.35a2.2 2.2 0 0 1 1.8-.89 2.6 2.6 0 0 1 2.5 2.77 2.54 2.54 0 0 1-2.52 2.75 2.21 2.21 0 0 1-1.79-.88v3.67h-.89v-8.17h.89zm0 1.81a1.81 1.81 0 0 0 1.72 2 1.78 1.78 0 0 0 1.75-2 1.75 1.75 0 0 0-1.76-1.89 1.77 1.77 0 0 0-1.75 1.9zm10.35 2.68h-.89v-.72a2.2 2.2 0 0 1-1.8.87 2.77 2.77 0 0 1 0-5.52 2.26 2.26 0 0 1 1.79.89v-.75h.89zm-4.31-2.67a1.81 1.81 0 0 0 1.71 2 1.78 1.78 0 0 0 1.75-2 1.75 1.75 0 0 0-1.76-1.89 1.77 1.77 0 0 0-1.7 1.89zm6.81-2a1.34 1.34 0 0 1 1.16-.71 1.57 1.57 0 0 1 .8.25l-.42.81a.87.87 0 0 0-.54-.23c-1 0-1 1.26-1 1.94v2.62h-.89v-5.23h.89zm4.04 4.67h-.89v-4.38h-.55v-.83h.55v-1.88h.89v1.88h.94v.83h-.94zm2.63-4.67a1.47 1.47 0 0 1 1.23-.71 1.61 1.61 0 0 1 1.45.87 1.74 1.74 0 0 1 1.57-.87c1.33 0 1.67 1.09 1.67 2.19v3.18h-.89v-3c0-.68 0-1.51-1-1.51s-1.14 1-1.14 1.78v2.77h-.89v-3c0-.65-.08-1.58-.94-1.58-1 0-1.16 1.06-1.16 1.85v2.71h-.89v-5.23h.89zm8.1 2.29a1.69 1.69 0 0 0 1.71 1.75 1.79 1.79 0 0 0 1.59-1.08l.76.43a2.64 2.64 0 0 1-2.42 1.47 2.53 2.53 0 0 1-2.56-2.69 2.54 2.54 0 1 1 5 .12zm3.17-.76a1.59 1.59 0 0 0-1.54-1.37 1.65 1.65 0 0 0-1.59 1.37zm3.05-1.46a1.76 1.76 0 0 1 1.49-.78c1.45 0 1.78 1 1.78 2.27v3.11h-.89v-3c0-.85-.07-1.6-1.1-1.6-1.23 0-1.3 1.14-1.3 2.07v2.48h-.89v-5.23h.89zm5.91 4.6h-.89v-4.38h-.55v-.83h.55v-1.88h.89v1.88h1v.83h-1zm4.71-2.61a2.75 2.75 0 1 1 2.75 2.75 2.75 2.75 0 0 1-2.75-2.75zm.89 0a1.86 1.86 0 1 0 1.86-1.94 1.85 1.85 0 0 0-1.86 1.93zm6.81 2.61h-.89v-4.38h-.52v-.83h.49v-2.08a2.69 2.69 0 0 1 .23-1.36 1.52 1.52 0 0 1 1.35-.66 2.1 2.1 0 0 1 .63.11v.9a1.84 1.84 0 0 0-.6-.12c-.72 0-.72.51-.72 1.44v1.77h1.32v.83h-1.32zm11.91-6.56a3.59 3.59 0 0 0-2.56-1.11 3.475 3.475 0 0 0 0 6.95 3.68 3.68 0 0 0 2.54-1.11v1.16a4.32 4.32 0 0 1-2.5.82 4.34 4.34 0 1 1 0-8.68 4 4 0 0 1 2.5.82zm1.11 3.95a2.75 2.75 0 1 1 2.75 2.75 2.75 2.75 0 0 1-2.75-2.75zm.89 0a1.86 1.86 0 1 0 1.86-1.94 1.85 1.85 0 0 0-1.86 1.93zm6.68-2.06a1.47 1.47 0 0 1 1.26-.71 1.61 1.61 0 0 1 1.45.87 1.74 1.74 0 0 1 1.57-.87c1.34 0 1.67 1.09 1.67 2.19v3.18h-.89v-3c0-.68 0-1.51-1-1.51s-1.14 1-1.14 1.78v2.77h-.89v-3c0-.65-.08-1.58-.93-1.58-1 0-1.16 1.06-1.16 1.85v2.71h-.89v-5.23h.95zm8.59 0a1.48 1.48 0 0 1 1.26-.71 1.61 1.61 0 0 1 1.45.87 1.74 1.74 0 0 1 1.57-.87c1.34 0 1.67 1.09 1.67 2.19v3.18h-.89v-3c0-.68 0-1.51-1-1.51s-1.14 1-1.14 1.78v2.77h-.89v-3c0-.65-.08-1.58-.94-1.58-1 0-1.16 1.06-1.16 1.85v2.71h-.89v-5.23h.89zm8.11 2.29a1.69 1.69 0 0 0 1.71 1.75 1.79 1.79 0 0 0 1.59-1.08l.76.43a2.64 2.64 0 0 1-2.42 1.47 2.53 2.53 0 0 1-2.56-2.69 2.54 2.54 0 1 1 5 .12zm3.17-.76a1.6 1.6 0 0 0-1.54-1.37 1.65 1.65 0 0 0-1.59 1.37zm3.01-1.53a1.34 1.34 0 0 1 1.16-.71 1.56 1.56 0 0 1 .8.25l-.42.81a.87.87 0 0 0-.54-.23c-1 0-1 1.26-1 1.94v2.62h-.88v-5.23h.89zm6.77.99a2 2 0 0 0-1.63-.88 1.87 1.87 0 0 0-1.85 1.94 1.83 1.83 0 0 0 1.8 1.94 2 2 0 0 0 1.71-.9v1.2a2.86 2.86 0 0 1-1.66.53 2.71 2.71 0 0 1-2.78-2.76 2.76 2.76 0 0 1 2.76-2.77 2.81 2.81 0 0 1 1.62.52zm1.86 1.3a1.69 1.69 0 0 0 1.71 1.75 1.79 1.79 0 0 0 1.59-1.08l.76.43a2.64 2.64 0 0 1-2.42 1.47 2.53 2.53 0 0 1-2.56-2.69 2.54 2.54 0 1 1 5 .12zm3.17-.76a1.6 1.6 0 0 0-1.54-1.37 1.65 1.65 0 0 0-1.59 1.37zM7.42 36.65H.04V8.14A7.88 7.88 0 0 1 5.44.96a8.44 8.44 0 0 1 8.13 1.57l24.34 26.32c1.22.76 1.72 0 1.71-.75V.96h7.45v28.27a8 8 0 0 1-4.85 6.56c-2.9 1.13-6.08 1.12-9.84-2.05L9.57 9.03c-.6-.64-2.16-.72-2.19.54v27.07zM51.82.96h7.45v25.57c0 2.72 2.25 2.72 4.51 2.73h33.09a3.44 3.44 0 0 0 2.94-3.28 3.54 3.54 0 0 0-3.08-3.42H75.2c-3.7.13-11.39-3.28-11.42-10.53 0-8.85 7.29-10.84 10.6-11.07h60.91v7.52h-15.24v28.17h-7.38V8.48H75.34c-3.55-.31-6.12 5.82-.27 6.7h22.9c3.44 0 9.14 3 9.16 10.39s-4.44 11.08-9.16 11.08H64.13c-5.59 0-7.59-1.26-9.57-3.14s-2.14-2.83-2.73-6.57v-26z" fill="#fff"/></svg>